<?xml version="1.0" encoding="utf-8"?>
<!-- Uploaded to: SVG Repo, www.svgrepo.com, Generator: SVG Repo Mixer Tools -->
<svg width="800px" height="800px" viewBox="0 0 1024 1024" class="icon"  version="1.1" xmlns="http://www.w3.org/2000/svg"><path d="M657.381053 614.561684l11.452631 3.17979c35.381895 11.210105 139.452632 67.368421 48.882527 202.186105-155.405474 46.834526-178.499368-74.671158-178.768843-106.280421l-0.512-12.746105h-52.951579l-0.512 12.746105c-0.269474 31.609263-23.363368 153.141895-178.768842 106.280421-90.570105-134.817684 13.473684-190.976 48.882527-202.186105l11.452631-3.17979-16.815158-50.795789-12.261052 3.422316c-30.127158 9.512421-152.872421 25.034105-156.26779-137.242948 100.298105-127.730526 185.829053-46.08 207.413895-15.872l6.548211 9.916632 43.600842-31.690106-7.491369-10.293894c-18.566737-25.573053-72.165053-137.081263 80.680421-191.703579 152.926316 54.649263 102.588632 161.657263 80.761263 191.703579l-6.979368 9.593263 43.008 32.363789 6.548211-9.916631c21.584842-30.208 107.115789-111.858526 207.386947 15.872-3.395368 162.277053-126.140632 146.755368-156.26779 137.242947l-12.261052-3.422316-16.761263 50.822737z" fill="#FFBDD8" /><path d="M993.091368 453.605053l-21.018947 64.754526c-23.956211 73.674105-68.581053 105.552842-101.834105 119.349895-8.811789 3.664842-18.054737 6.521263-27.567158 8.650105 36.621474 41.040842 55.107368 100.729263 29.507368 179.550316l-20.992 64.781473-68.850526 20.183579-40.448 59.149474h-68.149895c-82.863158 0-133.901474-36.028632-161.657263-83.563789-27.728842 47.535158-78.794105 83.590737-161.711158 83.590736h-68.122947l-40.421053-59.149473-68.796631-20.156632-21.045895-64.754526c-25.680842-79.009684-6.898526-138.644211 29.857684-179.738948a165.591579 165.591579 0 0 1-27.971368-8.542315c-33.226105-13.770105-77.904842-45.621895-101.834106-119.269053l-21.045894-64.781474 43.789473-56.751158-2.101894-71.626105 55.107368-40.043789C172.193684 252.954947 214.528 241.933474 252.739368 244.412632c0.350316 18.701474 3.098947 37.214316 7.868632 55.296-28.267789-4.931368-62.302316 0.862316-101.187368 29.130105l-32.094316 23.309474 1.805473 62.437052-38.184421 49.448421 12.261053 37.726316c14.120421 43.439158 38.076632 72.434526 71.194947 86.123789 28.267789 11.722105 63.245474 11.802947 98.600421 0.350316l128.134737-41.633684 16.653474 51.253895-128.134737 41.633684c-30.046316 9.754947-125.143579 50.903579-86.474105 169.795368l12.261053 37.699369 59.984842 17.569684 35.247158 51.577263H350.315789c125.008842 0 134.736842-103.127579 134.736843-134.736842v-134.736842h53.894736v134.736842c0.026947 31.609263 9.808842 134.709895 134.709895 134.709895h39.747369l35.247157-51.577263 59.984843-17.569685 12.234105-37.726315c37.888-116.682105-52.978526-158.450526-84.776421-169.175579l-1.724632-0.565895-128.161684-41.633684 16.976842-51.146105 127.838316 41.498947 1.805474 0.592842c34.762105 10.886737 69.012211 10.617263 96.794947-0.916211 33.118316-13.743158 57.074526-42.711579 71.194947-86.177684l12.234106-37.726316-38.184421-49.475368 1.805473-62.437053-32.121263-23.336421c-101.133474-73.458526-169.579789 4.257684-188.173474 29.857685l-79.171368 108.94821-43.600842-31.663158 0.538947-0.700631 78.686316-108.328421c21.827368-30.046316 32.525474-63.380211 30.100211-93.857685-2.802526-35.732211-22.986105-67.476211-59.957895-94.315789l-32.067369-23.309474L512 136.407579l-58.826105-21.018947-32.067369 23.309473c-101.106526 73.485474-48.370526 162.654316-29.803789 188.227369l79.198316 108.975158-43.600842 31.690105-79.198316-108.975158c-51.119158-70.413474-70.844632-181.679158 41.741473-263.491368l55.107369-40.04379L512 79.171368l67.530105-24.144842 55.080421 40.04379c62.652632 45.514105 79.171368 97.818947 82.000842 133.685895 0.754526 9.539368 0.619789 19.240421-0.296421 28.995368 50.364632-22.177684 112.828632-21.315368 179.900632 27.405474l55.134316 40.043789-2.074948 71.653053 43.816421 56.751158zM512 504.643368a34.304 34.304 0 1 0 0 68.608 34.304 34.304 0 0 0 0-68.608zM541.669053 323.368421a29.642105 29.642105 0 1 1-59.338106-0.053895 29.642105 29.642105 0 0 1 59.338106 0.053895z m121.047579 372.574316a29.669053 29.669053 0 1 1-47.966316 34.762105 29.669053 29.669053 0 0 1 47.966316-34.762105z m-346.597053-251.823158a29.642105 29.642105 0 1 1-18.378105 56.427789 29.642105 29.642105 0 0 1 18.378105-56.427789z m391.760842 0.026947a29.669053 29.669053 0 1 1 18.297263 56.454737 29.669053 29.669053 0 0 1-18.297263-56.454737z m-346.597053 251.796211a29.669053 29.669053 0 0 1 47.993264 34.842947 29.642105 29.642105 0 1 1-47.993264-34.842947z" fill="#231F20" /></svg>